<?xml version="1.0" encoding="iso-8859-1"?>
<!-- Generator: Adobe Illustrator 19.0.0, SVG Export Plug-In . SVG Version: 6.00 Build 0)  -->
<svg version="1.1" id="Capa_1" xmlns="http://www.w3.org/2000/svg" xmlns:xlink="http://www.w3.org/1999/xlink" x="0px" y="0px"
	 viewBox="0 0 512 512" style="enable-background:new 0 0 512 512;" xml:space="preserve">
<g>
	<g>
		<path d="M400.6,482H30V111.4c0-8.284-6.716-15-15-15s-15,6.716-15,15V497c0,8.284,6.716,15,15,15h385.6c8.284,0,15-6.716,15-15
			S408.884,482,400.6,482z"/>
	</g>
</g>
<g>
	<g>
		<path d="M497,0H111.4c-8.284,0-15,6.716-15,15v385.6c0,8.284,6.716,15,15,15H497c8.284,0,15-6.716,15-15V15
			C512,6.716,505.284,0,497,0z M304.199,96.4c34.85,0,63.201,28.352,63.201,63.199c0,34.849-28.352,63.2-63.201,63.2
			S241,194.447,241,159.599C241,124.752,269.351,96.4,304.199,96.4z M193.813,385.6c7.349-54.357,54.047-96.399,110.387-96.399
			s103.038,42.042,110.387,96.399H193.813z"/>
	</g>
</g>
<g>
</g>
<g>
</g>
<g>
</g>
<g>
</g>
<g>
</g>
<g>
</g>
<g>
</g>
<g>
</g>
<g>
</g>
<g>
</g>
<g>
</g>
<g>
</g>
<g>
</g>
<g>
</g>
<g>
</g>
</svg>
